<?xml version="1.0" standalone="no"?>
<!DOCTYPE svg PUBLIC "-//W3C//DTD SVG 20010904//EN"
 "http://www.w3.org/TR/2001/REC-SVG-20010904/DTD/svg10.dtd">
<svg version="1.0" xmlns="http://www.w3.org/2000/svg"
 width="614.000000pt" height="374.000000pt" viewBox="0 0 614.000000 374.000000"
 preserveAspectRatio="xMidYMid meet">

<g transform="translate(0.000000,374.000000) scale(0.100000,-0.100000)"
fill="#000000" stroke="none">
<path d="M1978 3653 c-19 -22 -48 -108 -48 -142 0 -51 -12 -57 -79 -38 -33 9
-68 17 -76 17 -30 0 -14 -22 30 -41 28 -12 51 -31 60 -49 9 -17 27 -37 40 -46
17 -11 25 -25 25 -45 0 -16 9 -52 20 -81 11 -29 20 -58 20 -65 0 -6 -24 -19
-52 -28 -29 -10 -73 -28 -98 -41 -25 -12 -66 -30 -92 -39 -61 -21 -170 -118
-231 -205 -26 -38 -55 -71 -65 -74 -9 -4 -27 -22 -39 -41 -16 -24 -32 -35 -55
-39 -64 -10 -388 -12 -388 -3 0 35 -243 -54 -380 -139 -55 -33 -75 -42 -81
-32 -4 7 -14 52 -20 100 -19 132 -43 115 -69 -49 -7 -40 -16 -75 -20 -78 -5
-3 -16 18 -25 45 -10 29 -22 49 -28 47 -14 -4 -25 -69 -26 -147 -1 -59 -5 -67
-85 -171 -58 -76 -107 -176 -138 -285 -20 -68 -23 -102 -23 -239 0 -183 16
-257 85 -400 45 -93 66 -116 123 -130 35 -9 44 -17 54 -45 7 -19 12 -59 12
-88 1 -95 19 -142 76 -199 43 -42 64 -55 121 -72 52 -15 84 -33 129 -72 l60
-51 87 5 c71 4 99 10 155 37 37 18 94 43 125 55 32 13 77 39 101 59 50 41 88
57 138 58 46 0 137 -22 149 -38 6 -6 19 -58 29 -116 10 -58 35 -154 55 -214
19 -60 43 -135 51 -166 13 -45 22 -59 39 -64 13 -3 41 -31 64 -63 40 -58 120
-121 152 -121 9 0 26 -13 38 -30 42 -56 73 -64 187 -50 91 12 103 16 132 45
41 41 49 74 33 140 -13 55 -9 75 17 75 18 0 15 30 -12 130 -25 95 -16 165 34
265 52 101 85 144 101 129 6 -6 27 -53 46 -104 43 -115 59 -147 143 -285 84
-139 177 -241 235 -256 22 -6 78 -24 124 -40 159 -55 258 -48 302 23 19 29 21
43 15 123 -4 71 -2 96 10 120 15 27 14 36 -11 134 -22 88 -26 119 -21 186 9
131 36 171 83 124 21 -22 97 -145 184 -300 39 -69 167 -212 211 -235 15 -7 47
-14 69 -14 23 0 65 -11 93 -24 41 -19 72 -25 152 -28 98 -3 100 -3 112 22 6
14 17 74 23 133 6 60 16 117 23 127 9 15 8 29 -1 62 -52 183 -58 321 -20 481
15 60 29 112 33 115 8 9 116 7 250 -5 84 -7 120 -14 153 -32 l44 -24 391 8
c216 4 399 11 408 15 9 5 59 16 112 24 53 9 113 23 134 31 21 8 102 32 181 54
79 21 153 47 164 58 33 28 78 104 78 130 0 49 -68 132 -136 166 -38 19 -187
50 -344 72 -219 30 -302 45 -376 70 -82 28 -250 109 -331 161 -69 44 -194 164
-307 294 -171 198 -231 262 -321 339 -112 97 -297 233 -425 311 l-97 60 -17
101 c-22 136 -35 159 -87 159 -38 0 -41 3 -60 44 -10 24 -26 47 -35 50 -46 18
-74 -5 -74 -62 0 -38 -34 -88 -89 -130 -42 -32 -47 -33 -102 -27 -52 6 -63 4
-108 -21 -27 -16 -52 -26 -55 -23 -4 3 -1 19 4 35 9 25 6 43 -15 100 -25 64
-58 114 -77 114 -17 0 -38 -50 -53 -125 -12 -64 -21 -85 -47 -112 -38 -39 -86
-57 -131 -48 -93 20 -204 58 -231 80 -17 14 -53 43 -81 65 -95 76 -229 104
-319 66 -22 -9 -41 -15 -42 -13 -11 11 -84 129 -84 136 0 4 10 13 23 19 12 7
34 21 48 33 25 20 31 21 109 10 102 -14 140 -14 140 -1 0 11 -54 25 -129 35
-100 12 -112 21 -165 131 -49 103 -71 134 -91 134 -7 0 -19 -8 -27 -17z m21
-562 c0 -10 -2 -11 -6 -3 -2 6 -11 12 -19 12 -15 0 -19 12 -7 23 9 10 33 -13
32 -32z m-69 -1 c0 -12 -28 -25 -36 -17 -9 9 6 27 22 27 8 0 14 -5 14 -10z
m-70 -34 c0 -8 -4 -18 -10 -21 -5 -3 -10 3 -10 14 0 12 5 21 10 21 6 0 10 -6
10 -14z m166 -27 c3 -6 34 -24 68 -39 42 -20 89 -55 152 -117 l92 -88 26 -125
c25 -123 39 -216 51 -356 4 -39 10 -76 15 -84 17 -27 40 1 60 72 47 161 126
397 139 411 4 4 45 0 90 -8 46 -9 156 -22 244 -28 l161 -12 48 -160 c26 -88
57 -198 69 -245 12 -47 26 -94 31 -104 10 -18 11 -18 23 -3 7 10 18 45 25 80
6 34 26 105 42 157 32 97 42 209 25 273 -7 27 -5 29 59 58 102 46 242 89 310
96 l62 6 7 -44 c4 -24 42 -150 86 -280 70 -212 79 -246 83 -329 5 -98 15 -122
44 -104 23 14 85 110 156 243 48 88 63 108 75 101 66 -35 383 -385 434 -478
46 -84 89 -290 106 -502 12 -148 8 -170 -30 -170 -16 0 -57 12 -90 26 -34 14
-76 27 -94 29 -39 5 -163 70 -260 135 -74 50 -124 99 -194 193 -24 31 -47 57
-52 57 -5 0 -9 -15 -9 -33 0 -35 21 -81 84 -182 20 -33 39 -71 43 -83 5 -22
-9 -79 -44 -176 -23 -63 -53 -224 -59 -316 -7 -95 15 -250 42 -302 15 -30 15
-32 -6 -48 -12 -9 -30 -35 -40 -58 -11 -23 -25 -45 -32 -47 -15 -6 -209 -25
-252 -26 -15 0 -48 10 -73 22 -37 18 -55 39 -110 123 -118 181 -187 362 -234
612 -30 165 -38 196 -49 189 -6 -4 -10 -27 -10 -52 0 -46 0 -46 -21 -27 -11
10 -36 51 -55 91 -40 82 -54 97 -54 56 0 -34 41 -125 75 -165 14 -16 25 -37
25 -46 0 -9 -20 -75 -44 -147 -67 -193 -84 -385 -50 -536 20 -88 15 -104 -16
-45 -25 45 -50 61 -50 31 0 -9 9 -33 20 -55 11 -22 20 -46 20 -54 0 -26 -59
-76 -91 -76 -17 0 -51 -11 -77 -25 -37 -19 -62 -25 -114 -25 -37 0 -77 4 -90
9 -32 12 -183 279 -220 388 -45 134 -98 490 -98 659 0 40 -3 55 -12 52 -9 -3
-15 -37 -18 -104 l-5 -99 -22 80 c-12 44 -27 107 -33 140 -18 96 -30 135 -40
135 -20 0 -9 -95 31 -247 41 -161 43 -186 19 -278 -18 -74 -36 -111 -95 -200
-30 -44 -67 -109 -84 -145 -27 -57 -31 -75 -31 -150 1 -57 7 -103 20 -140 10
-30 17 -56 16 -58 -2 -1 -26 -6 -54 -11 -31 -5 -62 -18 -82 -34 -23 -20 -43
-27 -75 -27 -23 0 -59 -7 -80 -15 -44 -19 -62 -14 -134 35 l-54 37 -63 179
c-122 345 -141 437 -124 599 6 55 12 119 15 141 2 23 16 64 30 90 29 54 28 71
-6 184 -13 42 -16 66 -9 68 19 7 40 33 40 52 0 10 10 26 22 34 14 10 29 42 44
93 21 73 21 82 8 133 -8 30 -14 65 -14 79 0 13 -29 79 -64 145 -36 67 -80 169
-99 226 -19 58 -46 130 -60 161 -15 31 -27 65 -27 76 0 60 197 286 321 369
104 69 227 111 245 83z m-211 -19 c-3 -5 -13 -10 -21 -10 -8 0 -14 5 -14 10 0
6 9 10 21 10 11 0 17 -4 14 -10z m-60 -20 c3 -5 0 -10 -9 -10 -8 0 -16 -5 -18
-12 -5 -15 -28 -1 -28 18 0 16 45 20 55 4z m-75 -28 c0 -15 -2 -15 -10 -2 -13
20 -13 33 0 25 6 -3 10 -14 10 -23z m-10 -42 c0 -5 -4 -10 -10 -10 -5 0 -10 5
-10 10 0 6 5 10 10 10 6 0 10 -4 10 -10z m-50 -26 c0 -8 -4 -12 -10 -9 -5 3
-10 -3 -10 -14 0 -12 -4 -21 -10 -21 -13 0 -13 16 0 41 13 23 30 25 30 3z
m-64 -80 c-3 -8 -14 -14 -25 -14 -11 0 -22 -6 -24 -12 -4 -10 -6 -10 -6 -1 -1
7 10 20 24 29 14 9 22 20 19 25 -3 5 -2 15 3 22 10 15 18 -27 9 -49z m2389
-44 c3 -5 2 -10 -4 -10 -5 0 -13 5 -16 10 -3 6 -2 10 4 10 5 0 13 -4 16 -10z
m-42 -19 c23 -15 26 -19 12 -25 -23 -8 -8 -28 16 -21 23 8 26 -10 3 -19 -38
-15 -54 -7 -54 27 0 18 -5 38 -12 45 -18 18 4 14 35 -7z m-2423 -18 c0 -5 -13
-16 -29 -25 -21 -11 -28 -12 -25 -3 3 7 15 17 27 23 28 14 27 13 27 5z m947
-49 c-9 -9 -27 6 -27 22 0 13 2 13 16 -1 9 -9 14 -18 11 -21z m113 32 c0 -2
-7 -9 -15 -16 -12 -10 -15 -10 -15 4 0 9 7 16 15 16 8 0 15 -2 15 -4z m1474
-11 c-7 -17 -44 -21 -44 -4 0 6 7 9 15 6 8 -4 17 -2 20 3 9 15 15 12 9 -5z
m-1544 -5 c0 -5 -5 -10 -11 -10 -5 0 -7 5 -4 10 3 6 8 10 11 10 2 0 4 -4 4
-10z m-1000 -10 c0 -5 -5 -10 -11 -10 -5 0 -7 5 -4 10 3 6 8 10 11 10 2 0 4
-4 4 -10z m1009 -42 c-7 -13 -12 -24 -11 -25 9 -13 -3 -23 -25 -22 -24 2 -25
2 -5 6 28 6 29 21 0 25 -30 4 -34 26 -6 31 55 10 60 9 47 -15z m79 -6 c2 -13
-2 -22 -9 -22 -7 0 -9 3 -6 6 3 4 2 16 -4 26 -9 16 -8 19 3 16 7 -3 14 -14 16
-26z m1552 2 c14 -35 13 -44 -6 -44 -9 0 -14 8 -13 18 3 34 -2 37 -20 12 -16
-20 -21 -22 -35 -11 -9 7 -16 22 -16 32 0 15 8 19 40 19 34 0 42 -4 50 -26z
m-2664 -11 c-10 -10 -19 5 -10 18 6 11 8 11 12 0 2 -7 1 -15 -2 -18z m2474 12
c-7 -8 -17 -15 -22 -15 -6 0 -5 7 2 15 7 8 17 15 22 15 6 0 5 -7 -2 -15z
m-2935 -4 c7 -12 -12 -24 -25 -16 -11 7 -4 25 10 25 5 0 11 -4 15 -9z m155 -1
c0 -5 -7 -10 -16 -10 -8 0 -12 5 -9 10 3 6 10 10 16 10 5 0 9 -4 9 -10z m2138
-26 c-10 -10 -28 6 -28 24 0 15 1 15 17 -1 9 -9 14 -19 11 -23z m-748 17 c0
-6 -4 -13 -10 -16 -5 -3 -10 1 -10 9 0 9 5 16 10 16 6 0 10 -4 10 -9z m-1690
-17 c0 -8 -4 -12 -10 -9 -5 3 -10 10 -10 16 0 5 5 9 10 9 6 0 10 -7 10 -16z
m570 -5 c0 -5 -4 -9 -10 -9 -5 0 -10 7 -10 16 0 8 5 12 10 9 6 -3 10 -10 10
-16z m-644 -16 c-10 -10 -19 5 -10 18 6 11 8 11 12 0 2 -7 1 -15 -2 -18z m620
-129 c-15 -163 -56 -234 -168 -288 -91 -44 -199 -66 -320 -66 -110 1 -168 12
-210 43 -71 52 -178 229 -178 295 0 28 3 32 28 32 15 0 62 11 104 25 125 40
270 65 436 76 87 6 177 14 202 18 43 8 47 6 79 -27 l34 -34 -7 -74z m2538 131
c3 -8 1 -15 -4 -15 -6 0 -10 7 -10 15 0 8 2 15 4 15 2 0 6 -7 10 -15z m246 5
c0 -5 -4 -10 -8 -10 -5 0 -14 -10 -19 -22 -10 -22 -11 -22 -19 -4 -5 13 -2 23
11 32 22 17 35 18 35 4z m-946 -26 c29 -25 29 -26 6 -19 -29 9 -50 24 -50 36
0 15 10 10 44 -17z m146 6 c0 -5 -4 -10 -10 -10 -5 0 -10 5 -10 10 0 6 5 10
10 10 6 0 10 -4 10 -10z m635 -20 c-8 -16 -15 -42 -16 -57 0 -15 -3 -22 -6
-15 -3 7 -16 17 -29 22 -35 14 -29 37 14 59 51 26 55 25 37 -9z m81 18 c4 -6
10 -25 13 -42 9 -43 36 -45 56 -5 12 23 19 28 25 19 5 -8 19 -11 39 -7 16 4
33 2 36 -4 9 -13 -15 -40 -28 -32 -5 3 -16 -2 -23 -11 -15 -21 -38 -11 -29 11
4 13 3 14 -10 3 -27 -22 -18 -40 20 -40 38 0 38 0 29 -24 -5 -12 -10 -13 -26
-5 -33 18 -45 -6 -14 -26 20 -13 23 -19 13 -29 -9 -11 -15 -6 -29 23 -9 20
-19 44 -22 54 -6 20 -52 24 -59 5 -4 -10 -7 -10 -18 -1 -11 11 -9 17 10 34 16
15 20 24 12 32 -8 8 -15 5 -27 -11 -8 -12 -22 -22 -30 -22 -26 0 -15 20 24 43
33 20 35 22 15 25 -13 2 -23 8 -23 13 0 13 37 11 46 -3z m-1568 -17 c3 -8 -1
-12 -9 -9 -7 2 -15 10 -17 17 -3 8 1 12 9 9 7 -2 15 -10 17 -17z m768 -8 c-10
-10 -19 5 -10 18 6 11 8 11 12 0 2 -7 1 -15 -2 -18z m-2576 7 c-20 -13 -50
-13 -50 0 0 6 15 10 33 10 24 0 28 -3 17 -10z m1759 -14 c8 -10 9 -16 1 -21
-13 -8 -30 3 -30 21 0 18 14 18 29 0z m861 -23 c0 -20 -3 -24 -11 -16 -7 7 -9
19 -6 27 10 24 17 19 17 -11z m-830 -46 c0 -5 -4 -5 -10 -2 -5 3 -10 14 -10
23 0 15 2 15 10 2 5 -8 10 -19 10 -23z m-1033 -14 c39 -127 80 -232 142 -361
58 -121 72 -159 77 -215 9 -89 -10 -171 -45 -198 -14 -12 -28 -27 -31 -34 -7
-17 -94 -80 -145 -104 -22 -10 -49 -28 -59 -40 -15 -16 -31 -21 -71 -21 -50 0
-55 -2 -115 -60 -52 -50 -66 -58 -89 -54 -18 4 -32 0 -40 -10 -10 -12 -33 -16
-95 -16 -52 0 -91 -5 -110 -15 -35 -19 -74 -19 -116 -1 -30 12 -35 11 -52 -6
-17 -17 -31 -20 -102 -17 -81 4 -81 4 -82 -21 -1 -43 -3 -47 -32 -59 -32 -14
-68 -7 -124 20 -21 11 -45 19 -55 19 -12 0 -23 12 -30 31 -14 37 -33 30 -33
-12 0 -18 -5 -29 -14 -29 -48 0 -156 262 -156 376 0 21 12 63 26 93 31 69 138
219 239 336 88 102 87 106 -27 97 -38 -3 -68 -1 -68 3 0 17 70 131 95 155 22
21 28 22 35 10 5 -8 10 -22 10 -30 1 -32 48 -149 77 -191 17 -24 63 -80 102
-124 94 -104 150 -188 157 -236 4 -21 15 -46 25 -55 11 -9 19 -23 19 -31 0
-16 22 -17 37 -2 8 8 16 2 29 -20 21 -36 29 -38 44 -11 6 11 38 34 70 50 l60
30 -21 53 c-49 129 -79 175 -155 245 l-76 69 48 -8 c200 -33 414 17 542 127
53 45 73 99 80 212 2 50 8 92 11 92 4 0 12 -17 18 -37z m2813 27 c0 -5 -7 -10
-16 -10 -8 0 -12 5 -9 10 3 6 10 10 16 10 5 0 9 -4 9 -10z m-950 -25 c0 -8 -4
-15 -10 -15 -5 0 -10 7 -10 15 0 8 5 15 10 15 6 0 10 -7 10 -15z m-50 -10 c0
-8 -3 -15 -6 -15 -3 0 -12 7 -20 15 -14 13 -13 15 5 15 12 0 21 -6 21 -15z
m750 0 c0 -11 11 -15 41 -15 28 0 39 -4 36 -12 -2 -7 -16 -12 -31 -10 -22 2
-26 -1 -26 -23 0 -14 -4 -25 -10 -25 -5 0 -10 11 -10 25 0 14 -4 25 -10 25 -5
0 -10 11 -10 25 0 14 5 25 10 25 6 0 10 -7 10 -15z m290 11 c0 -2 -7 -6 -15
-10 -8 -3 -15 -1 -15 4 0 6 7 10 15 10 8 0 15 -2 15 -4z m34 -31 c3 -9 -1 -18
-10 -22 -19 -7 -28 2 -21 22 8 19 23 19 31 0z m-356 -41 c-10 -10 -28 6 -28
24 0 15 1 15 17 -1 9 -9 14 -19 11 -23z m-671 10 c3 -8 -1 -23 -10 -31 -15
-15 -15 -14 -10 6 4 14 1 26 -8 32 -11 7 -10 9 4 9 10 0 20 -7 24 -16z m-2862
-27 c0 -15 -4 -28 -9 -29 -14 -5 -30 28 -23 46 10 26 32 14 32 -17z m2005 12
c0 -5 -4 -9 -10 -9 -5 0 -10 7 -10 16 0 8 5 12 10 9 6 -3 10 -10 10 -16z
m1674 -7 c2 -4 -7 -27 -22 -50 -27 -43 -58 -55 -68 -27 -9 21 12 43 44 47 15
2 26 8 24 13 -2 6 -9 9 -17 7 -7 -1 -16 2 -20 8 -4 6 6 10 24 10 16 0 32 -4
35 -8z m266 -14 c0 -18 -2 -20 -9 -8 -6 8 -7 18 -5 22 9 14 14 9 14 -14z
m-383 -43 c8 -22 -6 -33 -17 -15 -13 20 -12 30 0 30 6 0 13 -7 17 -15z m-737
-5 c0 -5 -4 -10 -9 -10 -6 0 -13 5 -16 10 -3 6 1 10 9 10 9 0 16 -4 16 -10z
m861 -23 c-16 -16 -26 0 -10 19 9 11 15 12 17 4 2 -6 -1 -17 -7 -23z m-3681
-46 c0 -35 -18 -14 -26 29 -5 33 -5 34 10 16 9 -11 16 -31 16 -45z m-200 19
c-6 -12 -14 -19 -17 -17 -2 3 1 15 7 27 6 12 14 19 17 17 2 -3 -1 -15 -7 -27z
m4220 20 c0 -5 -4 -10 -10 -10 -5 0 -10 5 -10 10 0 6 5 10 10 10 6 0 10 -4 10
-10z m-370 -29 c0 -5 -9 -11 -20 -14 -15 -4 -20 -14 -20 -39 0 -39 -6 -49 -26
-41 -15 6 -19 33 -5 33 5 0 7 10 4 21 -4 15 0 27 12 35 21 16 55 19 55 5z
m-3587 -43 c13 -20 2 -48 -18 -48 -11 0 -15 10 -15 36 0 37 14 42 33 12z
m4042 -18 c-3 -5 -13 -10 -21 -10 -8 0 -12 5 -9 10 3 6 13 10 21 10 8 0 12 -4
9 -10z m-4355 -30 c0 -5 -7 -10 -15 -10 -8 0 -15 5 -15 10 0 6 7 10 15 10 8 0
15 -4 15 -10z m110 -58 c0 -14 -11 -21 -26 -15 -21 8 -17 23 6 23 11 0 20 -4
20 -8z m-120 -57 c-10 -29 -14 -34 -26 -24 -20 16 -18 28 9 49 29 24 32 19 17
-25z m41 12 c-8 -8 -11 -7 -11 4 0 20 13 34 18 19 3 -7 -1 -17 -7 -23z m4419
18 c0 -8 -4 -15 -10 -15 -5 0 -10 7 -10 15 0 8 5 15 10 15 6 0 10 -7 10 -15z
m-4370 -24 c0 -12 -20 -25 -27 -18 -7 7 6 27 18 27 5 0 9 -4 9 -9z m4415 -1
c3 -5 2 -10 -4 -10 -5 0 -13 5 -16 10 -3 6 -2 10 4 10 5 0 13 -4 16 -10z
m-4546 -54 c15 -17 15 -18 -9 -15 -26 4 -37 29 -24 57 6 15 8 15 12 -3 2 -11
11 -28 21 -39z m4516 35 c3 -5 1 -12 -5 -16 -5 -3 -10 1 -10 9 0 18 6 21 15 7z
m49 -17 c9 -3 16 -12 16 -19 0 -7 11 -16 25 -19 14 -4 32 -18 42 -32 14 -22
14 -27 2 -36 -9 -6 -10 -11 -3 -14 25 -11 48 -33 41 -40 -4 -4 -13 -2 -19 4
-7 7 -28 13 -47 13 -20 1 -28 3 -18 6 12 3 16 10 12 24 -4 11 -2 19 4 19 18 0
13 20 -6 27 -10 3 -28 18 -40 32 -12 14 -22 20 -23 13 0 -18 -20 -5 -20 14 0
15 9 17 34 8z m-4489 -14 c3 -5 1 -10 -4 -10 -6 0 -11 5 -11 10 0 6 2 10 4 10
3 0 8 -4 11 -10z m-94 -55 c1 -17 -18 -17 -25 0 -4 11 -1 15 10 13 8 -2 15 -7
15 -13z m64 6 c7 -12 -12 -24 -25 -16 -11 7 -4 25 10 25 5 0 11 -4 15 -9z
m-47 -69 c2 -7 -2 -10 -12 -6 -9 3 -16 11 -16 16 0 13 23 5 28 -10z m4722 -37
c-7 -9 -15 -13 -17 -11 -7 7 7 26 19 26 6 0 6 -6 -2 -15z m-105 -5 c3 -5 1
-10 -4 -10 -6 0 -11 5 -11 10 0 6 2 10 4 10 3 0 8 -4 11 -10z m49 -32 c12 -46
8 -58 -16 -49 -27 10 -36 31 -13 31 12 0 15 6 10 20 -3 11 -2 20 3 20 5 0 12
-10 16 -22z m99 -30 c10 9 16 4 24 -19 13 -32 13 -32 -39 -43 -16 -4 -28 -2
-28 4 0 5 9 10 19 10 11 0 23 5 26 10 10 17 -37 11 -57 -7 -25 -22 -23 -1 5
40 20 31 23 32 30 14 5 -14 10 -17 20 -9z m73 -16 c-12 -11 -18 7 -10 30 l8
23 4 -23 c2 -13 1 -26 -2 -30z m59 28 c3 -5 -1 -10 -9 -10 -9 0 -16 5 -16 10
0 6 4 10 9 10 6 0 13 -4 16 -10z m2 -46 c3 -9 15 -19 27 -24 20 -7 20 -8 -6
-15 -28 -7 -37 -28 -18 -40 24 -15 9 -31 -25 -27 -20 2 -49 -1 -66 -8 l-30
-13 22 -23 c18 -19 19 -24 7 -24 -9 0 -21 7 -28 15 -14 17 -48 19 -70 5 -12
-8 -12 -10 3 -16 9 -3 17 -14 17 -24 0 -11 5 -22 11 -26 9 -5 10 1 5 20 -5 21
-3 27 6 24 21 -7 15 -42 -9 -53 -13 -5 -23 -16 -23 -23 0 -7 5 -10 11 -6 7 4
10 2 8 -5 -7 -19 -23 -16 -34 7 -6 11 -17 27 -24 36 -11 13 -11 16 2 16 11 0
15 9 13 32 -1 30 2 33 32 38 38 6 44 24 8 28 -29 4 -52 27 -36 37 5 3 10 1 10
-6 0 -7 10 -3 23 9 27 25 46 30 26 6 -18 -21 5 -36 38 -23 14 5 35 9 48 9 21
0 22 2 12 29 -5 15 -7 35 -4 45 8 21 36 21 44 0z m257 -55 c49 -11 174 -30
278 -43 169 -22 194 -27 229 -51 49 -35 94 -102 109 -165 14 -58 10 -66 -33
-75 -47 -11 -138 -59 -166 -88 -13 -14 -38 -29 -55 -33 -17 -3 -40 -13 -51
-20 -11 -8 -38 -14 -60 -14 -22 0 -75 -7 -118 -15 -134 -25 -464 -13 -495 19
-13 13 -12 19 6 50 35 59 92 195 132 314 21 62 43 119 50 127 13 16 47 24 70
18 8 -3 55 -13 104 -24z m-475 -46 c-1 -10 -4 -29 -8 -43 l-7 -25 -7 27 c-8
29 0 58 14 58 5 0 9 -8 8 -17z m191 -33 c0 -5 -9 -10 -21 -10 -11 0 -17 5 -14
10 3 6 13 10 21 10 8 0 14 -4 14 -10z m30 -40 c0 -5 -9 -10 -20 -10 -11 0 -20
5 -20 10 0 6 9 10 20 10 11 0 20 -4 20 -10z m920 -24 c0 -7 12 -17 28 -23 24
-9 25 -11 8 -18 -26 -11 -50 7 -54 40 -2 17 0 25 7 20 6 -3 11 -12 11 -19z
m-4406 -48 c9 -29 14 -69 13 -89 l-2 -36 -45 4 c-25 3 -58 9 -74 14 -38 12
-74 11 -78 -1 -2 -7 -22 -8 -58 -3 -46 7 -55 12 -55 28 0 17 9 21 52 26 38 5
70 19 129 58 43 28 84 51 91 51 7 0 19 -24 27 -52z m3471 42 c7 -12 -38 -12
-75 0 -20 7 -16 8 22 9 26 1 50 -3 53 -9z m-68 -26 c-3 -3 -12 -4 -19 -1 -8 3
-5 6 6 6 11 1 17 -2 13 -5z m11 -72 c6 -18 -15 -14 -22 4 -4 10 -1 14 6 12 6
-2 14 -10 16 -16z m1022 9 c0 -5 -7 -11 -15 -15 -9 -3 -15 0 -15 9 0 8 7 15
15 15 8 0 15 -4 15 -9z m-1135 -38 c-18 -16 -31 -21 -33 -14 -6 18 18 41 42
41 19 -1 19 -3 -9 -27z m95 -13 c0 -14 -14 -12 -28 2 -19 19 -14 30 8 18 11
-6 20 -15 20 -20z m-53 -16 c3 -8 16 -20 29 -25 13 -4 24 -13 24 -19 0 -13
-17 -13 -25 0 -9 15 -25 12 -25 -6 0 -8 -4 -12 -10 -9 -5 3 -10 15 -10 26 0
26 -17 24 -26 -3 l-7 -23 -9 24 c-4 13 -7 25 -6 26 11 8 44 24 51 25 4 0 10
-7 14 -16z m1113 -9 c-7 -8 -17 -15 -23 -15 -5 0 -2 9 8 20 21 23 35 19 15 -5z
m-4595 -15 c3 -5 1 -10 -4 -10 -6 0 -11 5 -11 10 0 6 2 10 4 10 3 0 8 -4 11
-10z m-183 -14 c28 -12 190 -36 243 -36 8 0 24 -9 35 -20 24 -24 25 -66 8
-188 -10 -75 -13 -83 -36 -89 -27 -7 -220 3 -245 13 -9 3 -34 30 -57 60 -23
30 -64 71 -91 90 -36 27 -49 42 -49 61 0 35 51 83 89 83 20 0 34 7 41 20 13
24 17 24 62 6z m3048 -30 c-1 -21 -1 -21 -15 -2 -21 27 -20 53 0 36 8 -7 15
-22 15 -34z m-62 -17 c-13 -18 -24 -25 -27 -18 -2 7 6 21 19 31 32 26 34 22 8
-13z m1747 21 c-3 -5 -13 -10 -21 -10 -8 0 -12 5 -9 10 3 6 13 10 21 10 8 0
12 -4 9 -10z m-116 -26 c-13 -16 -39 -19 -39 -4 0 12 32 30 43 23 4 -3 3 -11
-4 -19z m-1519 -3 c0 -10 -7 -21 -15 -25 -11 -4 -15 1 -15 19 0 16 6 25 15 25
8 0 15 -9 15 -19z m560 4 c7 -9 10 -18 7 -22 -8 -7 -37 15 -37 28 0 14 16 11
30 -6z m-3977 -19 c-15 -14 -30 -20 -31 -15 -6 15 19 39 40 39 16 0 15 -3 -9
-24z m3537 4 c0 -5 -4 -10 -10 -10 -5 0 -10 5 -10 10 0 6 5 10 10 10 6 0 10
-4 10 -10z m-3674 -11 c8 -13 -40 -65 -78 -85 -38 -20 -59 -18 -98 11 -23 17
-37 22 -44 15 -13 -13 -26 -13 -26 1 0 5 14 15 30 20 17 6 30 15 30 20 0 5 9
9 19 9 14 0 21 -8 23 -27 6 -52 90 -34 104 22 6 26 28 33 40 14z m221 -46 c-3
-10 -5 -4 -5 12 0 17 2 24 5 18 2 -7 2 -21 0 -30z m3533 23 c0 -8 -4 -18 -10
-21 -5 -3 -10 2 -10 11 0 15 -4 14 -25 -6 -27 -25 -32 -21 -15 11 13 22 60 26
60 5z m331 -3 c13 -15 12 -15 -8 -4 -24 12 -29 21 -14 21 5 0 15 -7 22 -17z
m-651 -3 c0 -5 -4 -10 -10 -10 -5 0 -10 5 -10 10 0 6 5 10 10 10 6 0 10 -4 10
-10z m219 1 c9 -6 -1 -10 -32 -12 -35 -3 -43 -1 -35 8 12 15 47 17 67 4z
m-3508 -34 c-8 -8 -11 -7 -11 4 0 20 13 34 18 19 3 -7 -1 -17 -7 -23z m3753
-21 c-6 -16 -24 -23 -24 -8 0 10 22 33 27 28 2 -2 1 -11 -3 -20z m-4281 -18
c-17 -8 -29 -8 -45 0 -20 9 -18 11 22 11 40 0 42 -2 23 -11z m177 8 c0 -3 -4
-8 -10 -11 -5 -3 -10 -1 -10 4 0 6 5 11 10 11 6 0 10 -2 10 -4z m4170 -6 c0
-5 -2 -10 -4 -10 -3 0 -8 5 -11 10 -3 6 -1 10 4 10 6 0 11 -4 11 -10z m-4282
-19 c3 -8 -1 -12 -9 -9 -7 2 -15 10 -17 17 -3 8 1 12 9 9 7 -2 15 -10 17 -17z
m601 5 c32 -18 120 -124 128 -154 7 -30 -11 -92 -37 -124 -11 -14 -36 -34 -57
-43 -34 -17 -65 -18 -293 -16 -140 1 -256 4 -259 6 -2 2 29 39 68 82 43 47 75
92 81 114 5 19 20 45 32 56 75 69 272 115 337 79z m3576 4 c3 -5 1 -10 -4 -10
-6 0 -11 5 -11 10 0 6 2 10 4 10 3 0 8 -4 11 -10z m-1305 -10 c0 -5 -5 -10
-11 -10 -5 0 -7 5 -4 10 3 6 8 10 11 10 2 0 4 -4 4 -10z m-9 -61 c10 -19 9
-20 -10 -9 -12 6 -21 18 -21 26 0 19 16 10 31 -17z m-1 -66 c0 -29 -17 -30
-25 0 -20 68 -20 64 4 43 11 -11 21 -30 21 -43z m-880 -23 c0 -5 -2 -10 -4
-10 -3 0 -8 5 -11 10 -3 6 -1 10 4 10 6 0 11 -4 11 -10z m-930 -45 c0 -8 -4
-15 -10 -15 -5 0 -10 7 -10 15 0 8 5 15 10 15 6 0 10 -7 10 -15z m-250 -15 c0
-5 -2 -10 -4 -10 -3 0 -8 5 -11 10 -3 6 -1 10 4 10 6 0 11 -4 11 -10z m2145
-77 c11 -46 81 -190 136 -279 40 -66 49 -88 40 -97 -19 -19 -42 3 -85 79 -21
38 -67 116 -102 174 -34 58 -64 112 -66 119 -3 13 26 27 58 30 7 1 15 -11 19
-26z m-1852 -128 c19 -60 56 -171 83 -247 27 -75 46 -140 41 -144 -17 -17 -61
11 -73 46 -76 226 -104 339 -104 423 0 71 13 52 53 -78z m938 67 c4 -4 18 -49
33 -100 27 -98 64 -178 127 -278 42 -67 49 -94 22 -94 -29 0 -35 9 -110 140
-68 119 -118 224 -149 312 l-14 41 42 -7 c24 -4 46 -10 49 -14z m-1566 -32
c18 -7 15 -10 -20 -25 -53 -23 -154 -40 -185 -31 -14 3 -41 20 -60 36 l-34 30
139 -1 c77 0 149 -4 160 -9z"/>
<path d="M1905 2238 c14 -44 58 -153 67 -165 15 -19 27 -7 21 20 -11 44 -72
167 -83 167 -7 0 -9 -8 -5 -22z"/>
<path d="M3650 2146 c0 -19 37 -63 45 -54 11 11 -15 68 -31 68 -8 0 -14 -6
-14 -14z"/>
<path d="M3597 2103 c-3 -4 -1 -19 4 -32 11 -28 33 -16 27 15 -3 19 -23 30
-31 17z"/>
<path d="M1852 2065 c3 -28 31 -55 43 -43 9 9 -17 61 -33 66 -10 3 -13 -4 -10
-23z"/>
<path d="M2761 1958 c13 -45 11 -52 -6 -38 -23 19 -30 4 -11 -25 13 -19 24
-25 44 -23 22 2 26 7 24 28 -6 43 -30 90 -46 90 -12 0 -13 -6 -5 -32z"/>
<path d="M4360 1788 c0 -26 27 -58 49 -58 14 0 -9 49 -33 69 -14 12 -16 10
-16 -11z"/>
<path d="M4330 1741 c0 -21 13 -41 26 -41 17 0 18 22 2 38 -14 14 -28 16 -28
3z"/>
<path d="M4060 1462 c0 -10 43 -52 53 -52 14 0 7 27 -11 43 -20 18 -42 22 -42
9z"/>
<path d="M4102 1368 c6 -16 36 -34 44 -25 9 9 -15 37 -33 37 -8 0 -13 -5 -11
-12z"/>
<path d="M4076 1301 c-7 -11 20 -48 29 -39 9 8 -4 48 -15 48 -5 0 -11 -4 -14
-9z"/>
<path d="M3210 1229 c0 -20 21 -49 35 -49 18 0 19 14 5 41 -11 20 -40 26 -40
8z"/>
<path d="M2356 1171 c-7 -11 9 -57 23 -66 17 -10 13 51 -3 64 -9 7 -17 8 -20
2z"/>
<path d="M3186 1162 c-7 -12 32 -48 41 -38 8 8 -8 38 -24 43 -6 2 -14 0 -17
-5z"/>
<path d="M3170 1103 c0 -5 4 -15 10 -23 11 -18 25 -7 17 15 -6 15 -27 21 -27
8z"/>
<path d="M2340 1087 c0 -23 18 -57 30 -57 16 0 11 26 -10 51 -17 21 -19 22
-20 6z"/>
<path d="M2315 1011 c-7 -13 12 -51 25 -51 6 0 10 8 10 19 0 23 -25 46 -35 32z"/>
<path d="M4055 560 c-9 -15 4 -30 26 -30 22 0 24 11 7 28 -15 15 -25 15 -33 2z"/>
<path d="M3880 520 c0 -5 7 -10 15 -10 8 0 15 5 15 10 0 6 -7 10 -15 10 -8 0
-15 -4 -15 -10z"/>
<path d="M3986 521 c-4 -5 -2 -12 3 -15 5 -4 12 -2 15 3 4 5 2 12 -3 15 -5 4
-12 2 -15 -3z"/>
<path d="M3768 513 c-33 -5 -33 -5 -13 -43 18 -35 35 -39 35 -10 0 17 3 19 19
10 26 -13 31 -13 31 3 0 13 -32 49 -41 46 -2 -1 -16 -4 -31 -6z"/>
<path d="M3085 456 c-12 -9 -16 -19 -11 -32 7 -18 8 -18 20 -1 9 11 20 15 31
10 15 -5 17 -3 12 11 -4 10 -7 20 -7 22 0 9 -27 3 -45 -10z"/>
<path d="M2132 408 c5 -15 28 -18 29 -3 0 6 -7 12 -17 13 -10 3 -15 -1 -12
-10z"/>
<path d="M2964 395 c-4 -10 1 -25 15 -38 l21 -21 0 26 c0 33 -27 58 -36 33z"/>
<path d="M1840 377 c0 -17 48 -87 60 -87 17 0 11 24 -15 63 -26 37 -45 48 -45
24z"/>
<path d="M1920 377 c0 -18 46 -60 60 -55 8 2 2 16 -15 36 -28 34 -45 41 -45
19z"/>
<path d="M2020 384 c0 -24 24 -44 55 -44 38 0 52 14 35 35 -9 11 -17 12 -30 5
-13 -7 -21 -7 -25 0 -6 11 -35 14 -35 4z"/>
<path d="M4040 2645 c0 -8 5 -15 10 -15 6 0 10 7 10 15 0 8 -4 15 -10 15 -5 0
-10 -7 -10 -15z"/>
<path d="M1090 2440 c0 -16 26 -40 44 -40 13 0 5 28 -12 43 -24 22 -32 21 -32
-3z"/>
<path d="M1072 2343 c2 -10 13 -19 26 -21 24 -4 29 7 10 26 -18 18 -40 15 -36
-5z"/>
<path d="M3955 2540 c3 -5 8 -10 11 -10 2 0 4 5 4 10 0 6 -5 10 -11 10 -5 0
-7 -4 -4 -10z"/>
<path d="M390 1820 c0 -25 53 -145 69 -154 19 -12 12 22 -20 100 -30 73 -49
93 -49 54z"/>
<path d="M1530 1783 c0 -27 37 -83 55 -83 20 0 19 8 -8 54 -24 44 -47 58 -47
29z"/>
<path d="M1455 1720 c-12 -19 37 -90 62 -90 19 0 16 13 -14 59 -27 42 -37 48
-48 31z"/>
<path d="M316 1675 c-7 -28 9 -59 25 -49 10 6 2 53 -11 67 -4 5 -10 -4 -14
-18z"/>
<path d="M1056 1425 c7 -16 42 -30 52 -20 8 8 -26 35 -45 35 -7 0 -10 -6 -7
-15z"/>
<path d="M820 1416 c0 -9 7 -19 15 -23 25 -9 27 2 5 22 -18 17 -20 17 -20 1z"/>
<path d="M368 1374 c-8 -7 44 -94 72 -119 29 -26 37 -10 16 29 -21 40 -80 99
-88 90z"/>
<path d="M4080 2325 c-8 -9 -8 -15 -2 -15 12 0 26 19 19 26 -2 2 -10 -2 -17
-11z"/>
<path d="M5040 1736 c0 -9 5 -16 10 -16 6 0 10 4 10 9 0 6 -4 13 -10 16 -5 3
-10 -1 -10 -9z"/>
<path d="M5410 1330 c0 -13 37 -50 50 -50 16 0 11 26 -8 43 -21 19 -42 22 -42
7z"/>
<path d="M5310 1317 c0 -16 72 -87 88 -87 21 0 13 17 -29 59 -43 43 -59 50
-59 28z"/>
<path d="M5215 1310 c-9 -15 13 -40 37 -40 24 0 19 18 -9 37 -15 10 -23 11
-28 3z"/>
<path d="M1360 1190 c0 -11 16 -37 35 -58 29 -31 35 -34 35 -17 0 23 -46 95
-60 95 -6 0 -10 -9 -10 -20z"/>
<path d="M1340 1127 c0 -8 9 -22 19 -31 26 -23 39 -2 15 25 -20 22 -34 25 -34
6z"/>
</g>
</svg>
