<?xml version="1.0" standalone="no"?>
<!DOCTYPE svg PUBLIC "-//W3C//DTD SVG 20010904//EN"
 "http://www.w3.org/TR/2001/REC-SVG-20010904/DTD/svg10.dtd">
<svg version="1.0" xmlns="http://www.w3.org/2000/svg"
 width="500.000000pt" height="500.000000pt" viewBox="0 0 500.000000 500.000000"
 preserveAspectRatio="xMidYMid meet">

<g transform="translate(0.000000,500.000000) scale(0.100000,-0.100000)"
fill="#000000" stroke="none">
<path d="M3688 4925 c-4 -4 -199 -9 -435 -11 -497 -5 -521 -8 -566 -68 -69
-95 -71 -105 -70 -381 5 -851 5 -1281 -1 -1360 -8 -110 7 -380 24 -416 38 -82
109 -92 570 -79 184 5 378 6 430 2 123 -9 1190 1 1212 12 9 4 27 29 40 54 22
45 23 61 33 422 5 206 7 449 4 540 -4 91 -4 361 0 601 6 459 3 523 -27 593
l-19 43 -119 11 c-141 14 -339 22 -674 27 -135 2 -279 7 -320 11 -41 3 -78 3
-82 -1z m277 -69 c65 -14 203 -12 275 4 25 5 159 8 297 7 l253 -2 30 -30 c23
-23 33 -45 40 -89 13 -78 15 -287 4 -416 -5 -58 -7 -163 -5 -235 5 -193 6
-383 4 -540 -2 -77 1 -250 5 -385 11 -300 6 -357 -37 -426 -17 -29 -41 -55
-54 -59 -51 -17 -947 -24 -1582 -12 -491 10 -500 11 -514 65 -14 49 -18 393
-11 887 2 127 2 336 2 465 -2 257 6 621 14 687 10 80 -7 77 534 83 261 3 522
7 580 7 58 1 132 -4 165 -11z"/>
<path d="M3675 4751 c-317 -7 -319 -8 -377 -116 -21 -38 -40 -86 -44 -105 -4
-19 -26 -81 -50 -136 -24 -56 -44 -106 -44 -111 0 -5 -9 -27 -19 -49 -25 -52
-61 -159 -61 -182 0 -10 -4 -22 -9 -28 -5 -5 -27 -61 -49 -124 -22 -63 -50
-137 -61 -163 -11 -26 -28 -76 -37 -110 -9 -34 -20 -67 -24 -72 -13 -16 -40
-98 -40 -123 0 -13 -11 -47 -25 -76 -50 -105 -55 -138 -55 -352 0 -183 2 -203
18 -210 9 -4 223 -8 475 -9 422 -1 458 0 473 16 17 19 22 75 28 342 4 167 4
168 -19 183 -26 17 -85 18 -485 5 -184 -5 -205 -8 -208 -23 -2 -10 4 -25 12
-34 14 -13 52 -15 294 -13 326 3 322 4 322 -75 0 -42 -4 -55 -17 -61 -10 -4
-162 -9 -338 -12 -351 -6 -364 -8 -332 -57 l17 -25 324 5 c317 5 325 5 335
-15 24 -44 5 -140 -28 -142 -41 -2 -433 -8 -575 -9 -215 -1 -204 -10 -205 165
-1 119 2 148 23 218 13 45 36 123 51 172 38 127 55 178 64 190 5 5 14 28 21
50 6 22 22 69 35 105 13 36 42 126 65 200 23 74 49 151 57 170 9 19 19 46 24
60 4 14 24 70 44 125 20 55 45 133 57 173 25 85 72 138 138 158 26 8 151 13
353 15 299 3 314 3 358 -18 46 -20 79 -61 94 -113 4 -14 22 -56 40 -95 40 -84
109 -292 129 -390 16 -81 121 -395 187 -560 15 -38 31 -81 34 -95 4 -14 21
-56 39 -95 l31 -70 -2 -163 c-1 -90 -5 -172 -9 -184 -6 -20 -10 -20 -148 -14
-77 3 -220 6 -316 7 -96 0 -203 3 -237 6 l-63 5 0 64 c0 34 5 66 10 69 6 3
150 7 321 8 304 2 312 3 319 22 5 13 2 28 -7 40 -13 19 -29 20 -316 23 -266 3
-303 5 -314 19 -18 23 -16 88 2 103 11 9 91 15 294 19 284 6 311 10 311 47 0
29 -80 36 -373 33 -247 -4 -290 -6 -303 -20 -19 -21 -23 -382 -5 -448 7 -23
10 -49 7 -57 -3 -9 3 -16 17 -18 38 -9 556 -28 566 -22 5 4 27 2 48 -2 44 -10
184 4 193 19 4 5 13 7 21 4 8 -3 27 7 42 21 l29 27 -4 186 c-2 110 -9 196 -15
211 -7 14 -24 66 -39 115 -14 50 -41 128 -59 175 -19 47 -39 105 -45 129 -6
24 -22 67 -35 95 -38 85 -73 190 -95 288 -12 51 -35 125 -52 163 -17 39 -44
108 -60 155 -17 47 -39 104 -49 127 -10 23 -19 49 -19 59 0 19 -30 72 -74 128
-63 82 -107 88 -581 77z"/>
<path d="M3720 4442 c-8 -5 -39 -15 -69 -22 -35 -8 -67 -25 -94 -49 -137 -122
-168 -182 -196 -384 -7 -48 -7 -87 0 -117 12 -52 57 -150 70 -150 5 0 20 -18
34 -40 38 -60 122 -109 225 -131 50 -11 228 -10 235 1 3 4 24 13 49 20 51 14
115 70 79 70 -11 0 -28 -9 -37 -19 -25 -27 -89 -40 -201 -42 -93 -1 -99 0
-168 36 -126 65 -202 158 -217 263 -9 70 4 169 30 227 11 24 20 47 20 50 0 4
19 33 42 66 46 66 71 85 173 126 58 23 84 28 155 27 60 0 94 -5 115 -17 17 -9
39 -17 49 -17 25 0 114 -94 122 -129 4 -14 14 -34 23 -45 13 -14 16 -41 16
-125 0 -90 -3 -112 -22 -146 -32 -61 -71 -91 -152 -121 -86 -30 -149 -29 -231
7 -90 39 -118 150 -65 262 l25 54 70 17 c110 27 150 6 150 -81 0 -73 -12 -93
-55 -93 -27 0 -39 7 -57 30 -26 36 -35 37 -49 6 -15 -32 3 -64 46 -82 44 -18
69 -18 111 2 80 38 98 146 38 231 -35 52 -69 63 -175 60 -74 -2 -79 -4 -125
-43 -85 -71 -109 -180 -68 -306 14 -44 53 -88 77 -88 6 0 31 -10 56 -22 25
-12 68 -24 97 -26 123 -10 288 48 321 112 8 17 23 40 33 51 43 49 56 195 26
297 -26 92 -176 248 -237 248 -11 0 -34 7 -50 16 -35 18 -196 30 -219 16z"/>
<path d="M1348 4905 c-4 -4 -254 -7 -555 -6 -633 1 -645 0 -679 -65 -27 -51
-35 -186 -24 -379 26 -413 34 -1164 14 -1296 -7 -52 -15 -172 -16 -265 -3
-149 -1 -174 16 -211 29 -63 54 -71 236 -74 85 -1 205 1 265 5 78 6 127 4 170
-5 43 -9 126 -11 290 -8 352 6 652 4 842 -5 183 -10 363 3 415 30 77 40 92
109 83 394 -4 118 -6 285 -5 370 4 285 5 404 3 600 -2 267 -2 281 -12 562 -10
280 -13 288 -94 330 -39 19 -55 21 -247 18 -381 -4 -505 -3 -600 4 -52 4 -98
4 -102 1z m-563 -65 c130 -7 261 -7 375 0 241 13 451 11 535 -7 48 -10 93 -12
145 -8 41 4 158 8 260 9 263 2 261 4 248 -269 -4 -93 -15 -203 -24 -244 -13
-59 -15 -104 -9 -225 3 -83 8 -284 10 -446 2 -162 8 -380 14 -485 20 -364 13
-473 -31 -496 -15 -8 -267 -12 -867 -14 -465 -2 -923 -4 -1017 -5 -94 0 -182
4 -197 9 -49 19 -59 50 -68 204 -13 236 -16 542 -9 1252 0 83 -2 251 -5 375
-7 281 -4 298 55 327 55 27 185 43 300 37 47 -3 175 -9 285 -14z"/>
<path d="M774 4650 c-81 -14 -118 -26 -180 -60 -44 -24 -93 -56 -111 -71 -17
-14 -35 -28 -40 -30 -17 -8 -84 -156 -103 -229 -23 -89 -25 -165 -6 -217 8
-21 17 -53 20 -72 8 -44 132 -192 189 -225 78 -46 233 -71 332 -55 162 28 266
156 282 347 14 168 -46 276 -193 348 -49 24 -71 29 -129 28 -83 0 -124 -22
-198 -103 -63 -71 -83 -139 -67 -229 18 -102 28 -115 134 -179 12 -7 45 -13
74 -13 97 0 156 42 166 120 5 35 2 50 -12 68 -25 32 -87 45 -125 26 -16 -9
-27 -18 -24 -21 3 -2 14 0 24 5 25 14 79 -10 88 -37 10 -32 -4 -79 -28 -96
-26 -18 -112 -20 -146 -2 -41 21 -61 58 -67 127 -8 89 8 144 57 191 62 60 107
68 211 41 61 -16 130 -81 153 -143 41 -114 15 -248 -64 -332 -103 -110 -332
-113 -449 -5 -90 82 -124 149 -136 273 -20 204 103 397 291 454 141 42 309 50
487 22 38 -6 74 -15 80 -19 23 -18 106 -63 106 -58 0 9 -84 63 -110 71 -14 4
-32 14 -41 21 -20 18 -101 38 -209 53 -140 19 -151 19 -256 1z"/>
<path d="M1414 4485 c11 -8 22 -12 25 -9 6 6 -19 24 -34 24 -5 -1 -1 -7 9 -15z"/>
<path d="M1580 4447 c-101 -37 -189 -100 -222 -160 -51 -92 -62 -136 -63 -252
0 -107 1 -112 37 -181 40 -78 98 -135 163 -163 64 -28 191 -54 227 -47 46 9
169 85 206 128 119 135 62 340 -122 433 -110 55 -154 46 -259 -52 -30 -29 -48
-109 -36 -159 10 -37 18 -48 56 -69 l45 -25 46 23 c48 24 72 66 58 102 -8 22
-26 9 -26 -19 0 -35 -23 -57 -60 -59 -28 -2 -38 4 -58 33 -64 93 45 222 166
195 41 -9 123 -80 149 -128 34 -63 31 -140 -6 -199 -35 -54 -73 -83 -143 -107
-109 -38 -243 10 -305 108 -44 68 -57 128 -50 227 8 112 45 185 124 244 98 73
211 82 369 29 90 -30 156 -94 206 -199 56 -119 62 -147 63 -260 0 -151 -46
-317 -112 -399 -42 -53 -137 -148 -173 -174 -75 -53 -92 -67 -84 -67 8 0 21 8
90 54 50 34 204 159 204 166 0 3 9 16 21 29 36 38 108 193 120 256 6 33 11
101 10 150 0 78 -6 108 -41 217 -36 109 -47 133 -84 170 -89 91 -118 111 -195
135 -92 29 -265 40 -321 20z"/>
<path d="M1185 3671 c-22 -4 -57 -14 -77 -24 -21 -9 -41 -17 -46 -17 -15 0
-132 -111 -147 -140 -19 -37 -37 -116 -37 -163 1 -52 21 -144 35 -160 7 -7 17
-22 23 -32 12 -22 92 -79 141 -101 55 -24 128 -18 205 17 60 28 71 38 100 88
26 47 32 66 32 118 -1 105 -59 163 -165 163 -123 0 -181 -179 -66 -206 33 -8
34 -2 2 32 -33 35 -32 65 4 103 34 36 57 38 112 11 46 -24 49 -29 53 -94 7
-121 -91 -194 -224 -165 -41 9 -61 20 -92 53 -52 55 -65 80 -73 147 -9 73 14
153 55 193 17 16 30 33 30 37 0 4 24 20 53 35 43 22 66 27 132 28 95 0 188
-32 214 -76 9 -14 28 -41 42 -59 19 -24 31 -57 39 -109 19 -110 18 -138 -4
-209 -17 -53 -33 -76 -97 -142 -50 -51 -84 -79 -98 -79 -12 0 -36 -8 -54 -17
-23 -13 -56 -17 -122 -17 -152 0 -253 23 -315 73 -19 15 -44 33 -55 39 -60 32
-172 172 -194 242 -5 19 -17 57 -26 84 -15 51 -16 251 0 289 4 9 3 17 -2 17
-31 0 -62 -218 -45 -310 13 -68 80 -214 128 -278 61 -81 169 -163 269 -202 33
-13 66 -28 72 -33 22 -16 265 -21 307 -7 83 27 204 119 235 178 9 16 28 47 42
68 17 26 31 70 42 130 16 88 16 96 -3 188 -35 172 -104 245 -276 290 -55 14
-103 25 -105 24 -2 0 -22 -4 -44 -7z"/>
<path d="M945 2442 c-2 -3 -141 -8 -307 -13 -369 -9 -414 -12 -436 -31 -9 -8
-25 -18 -34 -21 -36 -13 -50 -66 -58 -211 -4 -77 -5 -176 -2 -220 6 -91 7
-619 1 -1251 -4 -488 -4 -488 69 -531 l47 -28 225 -2 c124 -1 378 -3 565 -3
187 0 385 -2 440 -3 55 -2 249 -3 430 -3 294 0 336 2 385 18 142 48 151 81
149 542 0 176 -5 390 -10 475 -5 96 -5 222 1 330 5 96 10 315 11 486 3 409 7
398 -157 449 -70 22 -78 22 -320 13 -137 -5 -319 -7 -404 -3 -210 8 -589 13
-595 7z m165 -63 c25 0 299 0 610 0 634 -1 623 0 637 -66 9 -41 10 -610 3
-1008 -3 -137 -3 -421 0 -630 5 -424 6 -423 -61 -457 -31 -16 -74 -19 -375
-25 -186 -3 -433 -6 -549 -4 -115 1 -403 2 -640 1 -489 0 -523 3 -555 55 -21
34 -21 45 -20 372 0 186 5 358 10 383 5 26 6 193 2 400 -12 609 -8 848 17 913
26 68 96 77 541 70 184 -3 355 -5 380 -4z"/>
<path d="M1240 2346 c0 -9 5 -16 10 -16 6 0 10 4 10 9 0 6 -4 13 -10 16 -5 3
-10 -1 -10 -9z"/>
<path d="M1278 2247 c4 -59 -14 -141 -37 -172 -4 -5 -14 -26 -21 -45 -26 -66
-97 -158 -211 -273 -142 -143 -152 -156 -174 -240 -16 -58 -17 -82 -8 -171 8
-89 13 -108 38 -140 15 -20 29 -35 31 -33 2 2 -8 34 -21 73 -15 42 -23 81 -19
99 3 17 6 46 8 65 2 19 9 51 16 70 7 19 17 48 23 63 14 40 53 87 172 209 58
59 105 112 105 118 0 5 4 10 9 10 5 0 12 9 16 19 3 10 20 39 38 62 32 45 50
92 69 187 5 28 14 52 20 52 5 0 18 -21 29 -47 11 -27 25 -57 30 -68 17 -36 36
-131 38 -196 2 -65 1 -68 -79 -298 -27 -78 -31 -102 -26 -145 10 -76 47 -143
122 -221 110 -115 151 -190 160 -293 7 -76 -4 -119 -60 -231 -26 -51 -47 -77
-83 -103 -192 -136 -476 -78 -556 115 -23 53 -30 137 -18 185 11 40 31 58 31
28 0 -19 25 -27 39 -13 19 19 13 58 -9 64 -11 3 -20 13 -20 22 0 20 22 41 100
97 l55 39 112 -1 c131 -1 148 -7 203 -76 31 -40 39 -58 44 -111 14 -129 -37
-220 -146 -257 -32 -11 -69 -20 -82 -20 -39 0 -88 28 -119 68 -25 32 -28 44
-25 88 5 55 33 101 76 125 31 17 87 15 117 -5 21 -14 25 -24 25 -66 0 -44 -3
-52 -24 -61 -18 -8 -33 -8 -55 -1 -34 12 -43 -1 -12 -18 31 -16 57 -12 89 15
34 28 47 70 37 115 -14 64 -133 90 -217 49 -52 -26 -92 -97 -92 -163 0 -61 44
-123 114 -159 48 -25 62 -28 113 -23 78 8 134 34 178 83 78 86 89 218 29 338
-37 75 -85 109 -176 126 -89 17 -99 23 -124 81 -18 40 -24 73 -24 133 -1 70 3
87 28 135 17 30 39 73 50 95 10 22 29 51 42 65 49 54 128 310 95 310 -6 0 -11
-15 -11 -35 0 -44 -41 -154 -78 -208 -16 -23 -36 -53 -46 -67 -9 -14 -28 -43
-43 -65 -110 -163 -128 -246 -78 -365 14 -33 25 -66 25 -73 0 -8 -26 -24 -62
-37 -46 -16 -78 -37 -119 -77 l-57 -55 -7 33 c-3 19 -12 48 -20 64 -7 17 -18
53 -24 80 -12 48 -72 151 -99 168 -7 5 -28 21 -45 37 -38 33 -195 100 -251
107 l-39 5 30 -38 c53 -68 64 -114 60 -249 -3 -106 -7 -127 -32 -180 -15 -33
-35 -68 -43 -77 -8 -10 -12 -27 -9 -39 3 -12 2 -29 -2 -38 -23 -46 -29 -72
-30 -134 -1 -74 15 -117 64 -176 42 -49 81 -72 132 -77 35 -4 44 -2 33 5 -8 6
-23 11 -34 11 -26 0 -91 70 -115 125 -15 35 -21 68 -21 124 1 79 20 192 37
213 13 17 30 67 53 153 23 91 17 200 -16 270 -13 27 -22 51 -20 53 4 3 65 -27
126 -63 49 -28 138 -124 149 -160 6 -16 19 -55 29 -85 27 -74 44 -199 41 -290
-6 -158 19 -219 123 -303 45 -37 73 -50 135 -66 125 -31 178 -33 264 -11 137
34 222 97 271 200 76 162 77 267 2 437 -44 101 -47 113 -46 188 3 115 44 247
92 295 3 3 12 17 20 31 37 65 71 109 102 130 18 12 45 34 61 47 32 31 33 24 7
-48 -34 -95 -18 -326 27 -381 6 -8 23 -41 38 -74 16 -33 41 -75 57 -93 15 -18
28 -39 28 -46 0 -8 15 -37 34 -65 40 -61 62 -172 51 -260 -9 -78 -84 -232
-127 -262 -18 -12 -38 -29 -45 -36 -6 -8 -29 -21 -50 -29 l-38 -15 39 6 c40 7
131 66 177 117 15 16 42 59 60 96 33 65 34 71 34 187 l0 120 -43 89 c-23 48
-56 105 -72 126 -17 21 -30 41 -30 44 0 4 -17 33 -37 64 -20 31 -40 75 -44 97
-4 22 -13 65 -19 95 -24 115 -5 223 57 322 35 54 2 47 -114 -25 -29 -17 -64
-43 -79 -57 -113 -107 -153 -159 -196 -251 -26 -55 -58 -187 -58 -240 0 -36
-12 -37 -39 -3 -40 51 -75 137 -77 187 -1 45 23 150 46 202 5 11 18 63 30 115
21 99 20 144 -10 259 -13 53 -90 197 -125 235 -40 44 -52 35 -47 -37z"/>
<path d="M1590 2255 c0 -8 4 -15 10 -15 5 0 7 7 4 15 -4 8 -8 15 -10 15 -2 0
-4 -7 -4 -15z"/>
<path d="M2230 2185 c0 -8 5 -15 10 -15 6 0 10 7 10 15 0 8 -4 15 -10 15 -5 0
-10 -7 -10 -15z"/>
<path d="M962 2149 c-28 -10 -27 -14 2 -45 19 -22 24 -23 29 -10 4 9 16 16 27
16 11 0 20 6 20 13 0 18 -52 35 -78 26z"/>
<path d="M1156 2118 c-19 -26 -7 -45 29 -45 31 0 49 20 40 47 -9 27 -49 26
-69 -2z"/>
<path d="M2065 2110 c3 -5 11 -10 16 -10 6 0 7 5 4 10 -3 6 -11 10 -16 10 -6
0 -7 -4 -4 -10z"/>
<path d="M504 1776 c-8 -33 1 -44 29 -39 23 5 26 13 18 56 0 4 -10 7 -21 7
-12 0 -22 -9 -26 -24z"/>
<path d="M800 1611 c0 -25 6 -27 13 -6 4 8 2 17 -3 20 -6 4 -10 -3 -10 -14z"/>
<path d="M1715 1451 c-11 -50 -3 -144 16 -201 11 -30 19 -63 19 -73 0 -10 16
-66 36 -125 51 -150 53 -234 6 -347 -54 -128 -64 -146 -121 -208 -105 -114
-209 -146 -466 -147 -134 0 -191 10 -275 47 -25 11 -58 25 -73 32 -45 18 -137
102 -158 144 -31 60 -40 128 -29 225 36 336 35 301 11 374 -12 37 -31 78 -42
90 -23 26 -22 22 10 -47 22 -45 23 -58 18 -170 -3 -73 -13 -149 -26 -195 -11
-41 -22 -97 -25 -124 -5 -54 15 -143 40 -182 49 -74 176 -174 239 -190 17 -4
48 -15 70 -24 84 -38 322 -47 425 -17 30 9 89 26 130 38 108 31 188 94 265
209 47 70 62 115 76 224 9 75 8 100 -6 165 -20 91 -45 172 -56 186 -31 41 -74
223 -70 303 2 49 -5 55 -14 13z"/>
<path d="M292 1249 c-15 -6 -22 -15 -20 -26 4 -23 38 -23 52 -1 15 24 -2 38
-32 27z"/>
<path d="M747 293 c-11 -10 -8 -58 4 -70 16 -16 37 -5 54 27 10 20 11 30 2 39
-12 12 -50 15 -60 4z"/>
<path d="M3813 2440 c-2 -3 -156 -8 -341 -12 -735 -15 -781 -20 -831 -84 -20
-26 -21 -38 -21 -298 0 -149 -5 -329 -11 -401 -6 -71 -12 -229 -14 -350 -3
-121 -6 -286 -9 -367 -2 -81 0 -164 5 -185 6 -21 13 -144 18 -273 8 -258 17
-297 68 -323 37 -19 406 -28 1118 -28 735 1 948 7 1002 33 74 34 74 36 78 336
2 147 8 328 14 402 23 288 9 1284 -20 1423 -15 72 -63 122 -109 112 -43 -10
-120 -8 -201 4 -73 11 -736 21 -746 11z m837 -65 c149 -1 147 0 154 -32 4 -16
11 -130 15 -254 5 -134 13 -234 20 -247 14 -26 6 -721 -10 -797 -6 -27 -13
-218 -17 -423 l-7 -373 -24 -18 c-19 -14 -52 -20 -160 -25 -318 -17 -1203 -23
-1725 -11 -149 3 -202 8 -207 17 -4 7 -10 38 -14 68 -3 30 -10 71 -15 90 -9
37 -23 477 -20 640 1 52 3 228 5 390 3 289 5 327 25 520 9 83 13 242 8 350 -3
54 9 86 36 98 17 8 141 11 392 12 202 0 370 3 373 6 3 4 242 3 531 -2 289 -4
577 -8 640 -9z"/>
<path d="M3635 2299 c-126 -10 -320 -73 -410 -132 -157 -104 -329 -260 -365
-332 -8 -17 -29 -55 -47 -85 -17 -30 -47 -111 -66 -180 -61 -220 -62 -225 -49
-398 17 -230 74 -433 139 -494 13 -12 23 -26 23 -30 0 -21 92 -137 137 -171
167 -130 289 -188 451 -212 59 -9 125 -21 147 -27 69 -17 267 -19 347 -3 151
30 302 82 385 133 112 68 208 156 259 237 20 33 40 62 43 65 18 15 90 192 96
235 4 28 17 94 30 148 45 184 43 390 -5 522 -10 27 -21 66 -25 85 -4 19 -15
53 -25 75 -10 22 -28 63 -39 90 -24 56 -23 54 -70 118 -19 26 -38 47 -41 47
-4 0 -37 29 -74 64 -60 58 -228 166 -258 166 -6 0 -39 11 -72 24 -122 49 -325
71 -511 55z m388 -84 c116 -24 297 -127 313 -178 3 -12 19 -50 35 -85 44 -94
47 -138 15 -208 -29 -64 -47 -84 -101 -114 -48 -27 -146 -27 -208 0 -48 21
-55 32 -67 95 -4 22 -16 61 -26 87 -23 61 -13 91 44 135 82 62 192 38 232 -50
24 -51 24 -69 5 -106 -16 -32 -44 -43 -87 -34 -39 8 -46 29 -18 58 21 22 21
25 6 31 -40 15 -72 -58 -46 -106 10 -18 59 -40 91 -40 32 0 86 57 97 101 12
46 -1 92 -42 156 -20 31 -81 63 -123 65 -36 2 -100 -22 -148 -56 l-49 -35 -81
78 c-45 43 -101 90 -126 104 -51 29 -151 47 -269 47 -139 0 -76 39 102 63 108
15 361 10 451 -8z m-399 -119 c62 -17 98 -34 120 -54 17 -16 45 -39 63 -51 49
-34 102 -113 134 -203 27 -78 28 -85 19 -174 -12 -113 -17 -127 -72 -185 -80
-86 -164 -112 -266 -84 -68 19 -86 38 -98 101 -3 21 -17 63 -30 92 -37 81 -33
111 24 170 48 50 84 64 152 58 43 -3 100 -29 106 -48 3 -10 17 -29 31 -42 56
-53 2 -176 -78 -176 -65 0 -95 49 -44 72 39 18 32 40 -12 36 -31 -3 -38 -7
-45 -33 -27 -99 90 -165 172 -97 100 82 72 247 -54 321 -30 17 -56 23 -101 23
-56 0 -67 -3 -111 -37 -27 -20 -56 -48 -64 -62 -28 -48 -46 -51 -78 -16 -57
61 -139 93 -245 93 -65 0 -92 -5 -155 -31 -43 -16 -88 -41 -103 -55 -55 -52
-48 -15 13 79 23 34 57 77 77 95 20 18 52 48 71 67 74 71 194 131 315 158 59
13 175 6 259 -17z m917 -218 c62 -72 95 -133 107 -198 6 -30 18 -75 27 -99 8
-25 12 -48 8 -52 -5 -4 -39 0 -78 8 -69 15 -115 14 -265 -6 -81 -10 -216 -73
-317 -148 -40 -30 -73 -58 -73 -62 0 -5 -16 -18 -35 -30 -19 -11 -40 -32 -47
-46 -6 -13 -19 -27 -29 -30 -10 -3 -51 -39 -91 -80 -40 -41 -77 -75 -81 -75
-4 0 -31 -17 -60 -39 -118 -87 -224 -130 -369 -147 -66 -8 -236 23 -300 56
-65 32 -154 97 -163 120 -13 31 -25 285 -16 330 5 25 13 62 16 84 9 57 48 137
81 168 16 14 60 42 98 61 122 63 267 60 367 -5 51 -33 72 -61 122 -163 24 -50
29 -73 30 -140 1 -85 -20 -162 -54 -201 -11 -11 -19 -25 -19 -30 0 -11 -19
-28 -77 -67 -70 -48 -215 -53 -283 -10 -58 38 -81 77 -87 152 -5 63 -3 76 22
126 23 48 35 60 72 76 57 24 146 25 193 1 41 -20 75 -80 66 -117 -4 -14 -26
-46 -50 -71 -38 -39 -49 -45 -77 -42 -33 3 -34 4 -33 46 1 38 -2 43 -20 40
-15 -2 -22 -12 -24 -32 -10 -87 85 -125 166 -67 43 32 49 42 57 110 8 69 -9
114 -60 155 -100 82 -159 80 -287 -13 -61 -44 -72 -77 -66 -191 7 -121 39
-180 123 -226 51 -28 70 -33 127 -34 92 0 190 33 234 78 19 19 34 40 34 47 0
7 9 20 19 29 11 10 29 45 42 79 31 85 35 90 83 83 116 -17 156 -18 204 -3 65
18 135 64 157 101 10 16 26 37 36 47 26 26 49 85 49 125 0 19 3 34 8 34 4 0
31 -9 60 -20 73 -28 150 -26 217 5 89 43 130 122 126 245 -3 79 -17 136 -42
171 -10 15 -19 33 -19 41 0 12 73 -61 171 -174z m100 -419 c26 -6 52 -16 57
-22 6 -7 13 -51 17 -99 l7 -88 -63 6 c-35 3 -69 7 -76 9 -19 6 -183 -23 -258
-46 -38 -12 -88 -34 -110 -49 -37 -26 -161 -129 -177 -147 -44 -52 -191 -183
-224 -201 -13 -7 -28 -22 -35 -33 -6 -12 -36 -32 -67 -46 -32 -13 -66 -33 -77
-43 -11 -10 -76 -37 -145 -60 -115 -38 -134 -41 -227 -41 -57 0 -111 4 -120 9
-10 5 -40 12 -68 15 -54 6 -136 43 -184 83 -22 18 -37 48 -57 110 -34 106 -31
111 41 64 55 -36 89 -47 180 -58 92 -11 259 -3 320 16 82 25 244 116 300 169
11 10 34 29 50 41 46 36 165 142 210 188 111 114 307 217 450 238 43 6 200 -3
256 -15z m34 -271 l40 -14 -2 -55 c-2 -31 -11 -83 -21 -115 l-18 -59 -84 -7
c-47 -4 -101 -11 -120 -17 -19 -5 -55 -15 -80 -22 -65 -18 -169 -96 -328 -247
-161 -152 -232 -209 -293 -231 -19 -7 -59 -22 -89 -34 -47 -18 -76 -21 -205
-22 -143 0 -153 1 -209 28 -32 15 -64 27 -72 27 -7 0 -44 22 -81 50 -37 27
-77 56 -88 64 -34 24 -10 29 82 16 108 -15 190 -14 280 4 109 22 165 39 213
65 25 13 59 31 75 40 49 27 147 94 174 119 14 14 42 35 61 48 19 13 76 62 125
109 157 150 282 235 375 254 30 6 64 13 75 15 35 8 149 -1 190 -16z m-31 -320
c8 -13 5 -27 -14 -60 -14 -24 -36 -63 -50 -89 -99 -179 -239 -307 -386 -353
-33 -10 -75 -25 -94 -32 -81 -30 -390 -65 -438 -50 -34 11 -27 36 9 36 45 0
179 48 219 78 19 14 116 107 217 207 200 197 246 228 384 265 86 23 138 22
153 -2z"/>
<path d="M7 1063 c-4 -3 -7 -20 -7 -37 1 -29 1 -30 15 -12 24 31 16 74 -8 49z"/>
</g>
</svg>
